<?xml version="1.0" encoding="UTF-8"?>
<svg width="18px" height="14px" viewBox="0 0 18 14" version="1.1" xmlns="http://www.w3.org/2000/svg" xmlns:xlink="http://www.w3.org/1999/xlink">
    <!-- Generator: Sketch 52.6 (67491) - http://www.bohemiancoding.com/sketch -->
    <title>Group</title>
    <desc>Created with Sketch.</desc>
    <g id="Page-1" stroke="none" stroke-width="1" fill="none" fill-rule="evenodd">
        <g id="Group" fill="#282828" fill-rule="nonzero">
            <g id="Shape">
                <path d="M1,0 L12.6,0 C13.1522847,0 13.6,0.4477153 13.6,1 C13.6,1.5522847 13.1522847,2 12.6,2 L1,2 C0.4477153,2 0,1.5522847 0,1 C0,0.4477153 0.4477153,0 1,0 Z M1,12 L10.2,12 C10.7522847,12 11.2,12.4477153 11.2,13 C11.2,13.5522847 10.7522847,14 10.2,14 L1,14 C0.4477153,14 0,13.5522847 0,13 C0,12.4477153 0.4477153,12 1,12 Z M1,6 L17,6 C17.5522847,6 18,6.4477153 18,7 C18,7.5522847 17.5522847,8 17,8 L1,8 C0.4477153,8 0,7.5522847 0,7 C0,6.4477153 0.4477153,6 1,6 Z"></path>
            </g>
        </g>
    </g>
</svg>